# xmcd
#
# Track frame offsets: 
#        150
#        16500
#        32742
#        46492
#        62477
#        85355
#        95875
#        113627
#        136485
#        151740
#        164510
#        176042
#        189755
#        201895
#
# Disc length: 3377 seconds
#
# Revision: 0
# Processed by: cddbd v1.4PL0 Copyright (c) Steve Scherf et al.
# Submitted via: ExactAudioCopy v0.90b4
#
DISCID=b10d2f0e
DTITLE=The Young Guns Bluesband - Happy Go Lucky
DYEAR=2003
DGENRE=Blues
TTITLE0=Happy Go Lucky Boy
TTITLE1=Alone As I Am
TTITLE2=Mess Around
TTITLE3=Mama Told Me
TTITLE4=She's An Upsetter
TTITLE5=Let It Go
TTITLE6=I Dream About My Baby
TTITLE7=I Don't Know What To Do
TTITLE8=Someway, Some Day
TTITLE9=Cold In My Soul
TTITLE10=O My Boogie
TTITLE11=Don't You Listen To Him
TTITLE12=Uno Mas
TTITLE13=Driftin Man
EXTD=
EXTT0=
EXTT1=
EXTT2=
EXTT3=
EXTT4=
EXTT5=
EXTT6=
EXTT7=
EXTT8=
EXTT9=
EXTT10=
EXTT11=
EXTT12=
EXTT13=
PLAYORDER=
